# xmcd
#
# Track frame offsets:
#	150
#	22080
#	43445
#	64984
#	86049
#	104591
#	123859
#	147280
#	174610
#	191258
#
# Disc length: 2841 seconds
#
# Revision: 3276834
# Processed by: cddbd v1.5.2PL0 Copyright (c) Steve Scherf et al.
# Submitted via: EZCDAudioConverter 8.0.2.1
#
DISCID=930b170a
DTITLE=Various Artist - Nếu Đời Không Có Anh
DYEAR=2011
DGENRE=Contemporary Blues
TTITLE0=Như Quỳnh - Trả lại thời gian
TTITLE1=Như Quỳnh, Trường Vũ - Con đường mang tên em
TTITLE2=Mai Thiên Vân - Nếu Đời Không Có Anh
TTITLE3=Quang Lê - Hai chuyến tàu đêm
TTITLE4=Duy Trường - Tội tình
TTITLE5=Hương Thủy - Họp mặt lần cuối
TTITLE6=Hạ Vy - Em về với người
TTITLE7=Duy Trường, Quỳnh Dung, Thành An - LK Nó và tôi, Những ngày xưa thân á
TTITLE7=i
TTITLE8=Mai Thiên Vân - Luyến thương
TTITLE9=Duy Trường - Trăng hờn tủi
EXTD=
EXTT0=
EXTT1=
EXTT2=
EXTT3=
EXTT4=
EXTT5=
EXTT6=
EXTT7=
EXTT8=
EXTT9=
PLAYORDER=
